<svg xmlns="http://www.w3.org/2000/svg" width="569.839" height="427.759" viewBox="0 0 569.839 427.759">
  <g id="undraw_shared_goals_re_jvqd" transform="translate(0 0)">
    <path id="Path_82" data-name="Path 82" d="M869.71,640.888l.855-19.233a62.117,62.117,0,0,1,28.974-7.334c-13.916,11.377-12.177,33.308-21.611,48.608a37.364,37.364,0,0,1-27.4,17.266l-11.645,7.13a62.61,62.61,0,0,1,13.2-50.735A60.474,60.474,0,0,1,863.2,626.261C865.984,633.615,869.71,640.888,869.71,640.888Z" transform="translate(-349.023 -259.565)" fill="#f2f2f2"/>
    <path id="Path_83" data-name="Path 83" d="M407.427,440.049a7.125,7.125,0,0,1,.465-10.916L399.914,405.1l12.708,3.414,5.628,22.3a7.164,7.164,0,0,1-10.823,9.236Z" transform="translate(-286.534 -229.715)" fill="#a0616a"/>
    <path id="Path_84" data-name="Path 84" d="M429.285,293.388c2.109,1.209,14.584-1.786,17.02-.934-1.345,8.206,5.96,5.127-1.973,15.9s-23.909,43.087-27.538,55.164-.037,29.094-.581,34.818a59.4,59.4,0,0,0,.049,9.962c-4.286-.054-8.51.835-12.863.267-4.642-13.135-7.763-31.831-9.882-42.164s-2.2-5.963-1.225-11.13,1.207-1.412.186-6.355,3.108-11.153,6.924-14.694c1.645-4.732,3.771-9.144,5.4-13.826C416.738,309.987,417.523,303.973,429.285,293.388Z" transform="translate(-285.361 -213.62)" fill="#6c63ff"/>
    <path id="Path_85" data-name="Path 85" d="M569.75,476.633H559.206l-5.016-40.672h15.563Z" transform="translate(-79.069 -62.201)" fill="#ffb6b6"/>
    <path id="Path_86" data-name="Path 86" d="M837.484,692.792h-34v-.43a13.234,13.234,0,0,1,13.233-13.234h0l6.211-4.712,11.587,4.712h2.968Z" transform="translate(-344.113 -268.139)" fill="#2f2e41"/>
    <path id="Path_87" data-name="Path 87" d="M512.61,476.633H502.066l-5.016-40.672h15.562Z" transform="translate(-70.916 -62.201)" fill="#ffb6b6"/>
    <path id="Path_88" data-name="Path 88" d="M780.344,692.792h-34v-.43a13.234,13.234,0,0,1,13.233-13.234h0l6.211-4.712,11.587,4.712h2.968Z" transform="translate(-335.96 -268.139)" fill="#2f2e41"/>
    <path id="Path_89" data-name="Path 89" d="M774.694,424.569l68.586,1.715c13.026,7.075,13.224,22.388,8.956,40.569,0,0,1.441,10.806-1.441,13.688s-4.322,2.882-2.882,7.925-6.172,13.279-5.247,14.2,3.086,5.967,3.086,5.967l-7.2,41.063s-5.043,71.32-6.484,72.761-2.882,0-1.441,3.6,2.882,2.161,1.441,3.6a53.065,53.065,0,0,0-3.6,4.322H811.045s-1.313-7.2-1.313-7.924-1.441-5.043-1.441-5.763,1.273-1.994,1.273-1.994a23.706,23.706,0,0,0,.888-4.49c0-1.441,4.323-56.912,4.323-56.912l-8.645-72.041-20.892,70.6s0,61.955-1.441,63.4-1.441.72-.72,3.6,3.6,2.161,1.441,4.322-2.882-1.441-2.161,2.161l.72,3.6-21.612.309s-2.882-6.072-1.441-8.234,1.354-1.571-.4-5.108-2.478-4.257-1.758-4.978.72-4.552.72-4.552l3.6-68.93s.72-72.761.72-74.922a7.186,7.186,0,0,0-.6-3.241v-2.934l2.76-10.395Z" transform="translate(-337.564 -232.492)" fill="#2f2e41"/>
    <circle id="Ellipse_52" data-name="Ellipse 52" cx="21.31" cy="21.31" r="21.31" transform="translate(457.021 6.843)" fill="#ffb6b6"/>
    <path id="Path_90" data-name="Path 90" d="M807.107,272.926c-4.591,2.729-7.337,7.744-8.914,12.847a121.747,121.747,0,0,0-5.232,29.088L791.3,344.418l-20.623,62.934c17.873,15.123,85.055,3.437,85.055,3.437s2.062-.687,0-2.75-4.07-.235-2.008-2.3.641.235-.047-1.827,0-.687.687-1.375-5.322-6.874-5.322-6.874l5.5-36.125,6.874-72.867c-8.249-10.311-24.839-16.39-24.839-16.39l-4.287-7.716-21.433,1.715Z" transform="translate(-339.432 -209.379)" fill="#3f3d56"/>
    <path id="Path_91" data-name="Path 91" d="M808.481,216.174a10.069,10.069,0,0,1,2.443.321,34.774,34.774,0,0,0,4.783.8,22.163,22.163,0,0,1,19.846,18.8c1.238-1.08,4.056-3.066,6.365-1.22h0c.035.029.056.044.137.006,1.534-.728,4.256-9.683,4.339-17.569.044-4.185-.615-9.53-4-11.222l-.178-.089-.047-.194c-.226-.941-2.753-2.549-7.144-3.8-7.981-2.273-19.642-2.6-26.34,3.915-.507,2.2-2.391,2.8-4.057,3.332-1.845.59-3.438,1.1-3.689,3.362a69.359,69.359,0,0,0,.046,9.67,9.875,9.875,0,0,1,3.508-4.928,6.954,6.954,0,0,1,3.989-1.185Z" transform="translate(-343.729 -200.527)" fill="#2f2e41"/>
    <path id="Path_92" data-name="Path 92" d="M751.6,348.532l34.81-22.293-17.533-23.307-17.312,21.3-53.942,3.308a10.28,10.28,0,1,0-.575,15.149Z" transform="translate(-326.511 -215.138)" fill="#ffb6b6"/>
    <path id="Path_93" data-name="Path 93" d="M830.265,291.177c2.02,12.227-36.132,35.575-36.132,35.575,0-2.87-22.772,18.8-23.8,16.415-2.921-6.765-4.975-22.787-9.057-25.351-2.334-1.467,14.06-15.244,14.06-15.244s8.581-8.645,19.843-19.55a26.272,26.272,0,0,1,24.333-7.113S828.245,278.95,830.265,291.177Z" transform="translate(-338.058 -211.192)" fill="#3f3d56"/>
    <path id="Path_94" data-name="Path 94" d="M757.731,438.165A116.4,116.4,0,0,1,751.25,476.6c-.2.574-.4,1.14-.609,1.715a117.01,117.01,0,0,1-46.681,58.092c-1.466.943-2.949,1.843-4.458,2.718a115.926,115.926,0,0,1-56.412,15.62c-.652.009-1.3.017-1.955.017-.84,0-1.672-.009-2.5-.026a116.049,116.049,0,0,1-56.412-15.929q-2.263-1.325-4.458-2.752a116.705,116.705,0,0,1-41.64-148.617c.274-.574.557-1.14.849-1.715a116.643,116.643,0,0,1,208.33,0c.292.574.574,1.14.849,1.715A116.1,116.1,0,0,1,757.731,438.165Z" transform="translate(-304.312 -217.797)" fill="#f2f2f2"/>
    <path id="Path_95" data-name="Path 95" d="M723.182,502.4v1.715h10.442V502.4Zm-20.884,0v1.715H712.74V502.4Zm-20.884,0v1.715h10.442V502.4Zm-20.884,0v1.715h10.442V502.4Zm-20.884,0v1.715h10.442V502.4Zm-20.884,0v1.715H629.2V502.4Zm-20.884,0v1.715h10.442V502.4ZM577,502.4v1.715h10.434V502.4Zm-20.884,0v1.715h10.442V502.4Zm-20.884,0v1.715h10.442V502.4Zm217.546,0h-8.71v1.715h8.1Z" transform="translate(-305.84 -243.596)" fill="#e6e6e6"/>
    <path id="Path_96" data-name="Path 96" d="M744.067,488.4v1.715h10.442V488.4Zm-20.884,0v1.715h10.442V488.4Zm-20.884,0v1.715H712.74V488.4Zm-20.884,0v1.715h10.442V488.4Zm-20.884,0v1.715h10.442V488.4Zm-20.884,0v1.715h10.442V488.4Zm-20.884,0v1.715H629.2V488.4Zm-20.884,0v1.715h10.442V488.4ZM577,488.4v1.715h10.434V488.4Zm-20.884,0v1.715h10.442V488.4Zm-20.884,0v1.715h10.442V488.4Z" transform="translate(-305.84 -241.599)" fill="#e6e6e6"/>
    <path id="Path_97" data-name="Path 97" d="M744.067,459.4v1.715h10.442V459.4Zm-20.884,0v1.715h10.442V459.4Zm-20.884,0v1.715H712.74V459.4Zm-20.884,0v1.715h10.442V459.4Zm-20.884,0v1.715h10.442V459.4Zm-20.884,0v1.715h10.442V459.4Zm-20.884,0v1.715H629.2V459.4Zm-20.884,0v1.715h10.442V459.4ZM577,459.4v1.715h10.434V459.4Zm-20.884,0v1.715h10.442V459.4Zm-20.884,0v1.715h10.442V459.4Z" transform="translate(-305.84 -237.461)" fill="#e6e6e6"/>
    <path id="Path_98" data-name="Path 98" d="M744.067,439.4v1.715h10.442V439.4Zm-20.884,0v1.715h10.442V439.4Zm-20.884,0v1.715H712.74V439.4Zm-20.884,0v1.715h10.442V439.4Zm-20.884,0v1.715h10.442V439.4Zm-20.884,0v1.715h10.442V439.4Zm-20.884,0v1.715H629.2V439.4Zm-20.884,0v1.715h10.442V439.4ZM577,439.4v1.715h10.434V439.4Zm-20.884,0v1.715h10.442V439.4Zm-20.884,0v1.715h10.442V439.4Z" transform="translate(-305.84 -234.608)" fill="#e6e6e6"/>
    <path id="Path_99" data-name="Path 99" d="M747.23,396.4h-2.761v1.715h3.609C747.8,397.539,747.521,396.973,747.23,396.4Zm-23.645,0v1.715h10.442V396.4Zm-20.884,0v1.715h10.442V396.4Zm-20.884,0v1.715h10.442V396.4Zm-20.884,0v1.715h10.442V396.4Zm-20.884,0v1.715h10.442V396.4Zm-20.884,0v1.715H629.6V396.4Zm-20.884,0v1.715H608.72V396.4Zm-20.876,0v1.715h10.434V396.4Zm-20.884,0v1.715H566.96V396.4Zm-17.618,0c-.292.574-.574,1.14-.849,1.715h8.025V396.4Z" transform="translate(-306.242 -228.473)" fill="#e6e6e6"/>
    <path id="Path_100" data-name="Path 100" d="M733.079,403.139V548.044c-1.466.943-2.949,1.843-4.458,2.718V403.139Z" transform="translate(-333.432 -229.435)" fill="#3f3d56"/>
    <path id="Path_101" data-name="Path 101" d="M662.079,459.139V574.372c-.652.009-1.3.017-1.955.017-.84,0-1.672-.009-2.5-.026V459.139Z" transform="translate(-323.302 -237.424)" fill="#3f3d56"/>
    <path id="Path_102" data-name="Path 102" d="M591.079,403.139V550.445q-2.263-1.324-4.458-2.752V403.139Z" transform="translate(-313.172 -229.435)" fill="#3f3d56"/>
    <path id="Path_103" data-name="Path 103" d="M330.758,627.908l-1.7-23.653a76.511,76.511,0,0,0-35.921-8.055c17.517,13.54,16.114,40.6,28.245,59.121A46.022,46.022,0,0,0,355.7,675.658l14.578,8.387a77.118,77.118,0,0,0-17.956-62.024,74.491,74.491,0,0,0-14.033-12.341C335.1,618.828,330.758,627.908,330.758,627.908Z" transform="translate(-271.299 -256.977)" fill="#f2f2f2"/>
    <circle id="Ellipse_53" data-name="Ellipse 53" cx="16.289" cy="16.289" r="16.289" transform="translate(380.546 152.641)" fill="#6c63ff"/>
    <path id="Path_104" data-name="Path 104" d="M737.73,389.59a1.317,1.317,0,0,0-1.819,0,53.949,53.949,0,0,0-9.244,9.442l-1.976-3.823c-.76-1.471-2.98-.172-2.221,1.3l2.89,5.592a1.3,1.3,0,0,0,2.221,0,52.083,52.083,0,0,1,10.148-10.69A1.294,1.294,0,0,0,737.73,389.59Z" transform="translate(-332.532 -227.45)" fill="#fff"/>
    <circle id="Ellipse_54" data-name="Ellipse 54" cx="16.289" cy="16.289" r="16.289" transform="translate(320.533 200.651)" fill="#6c63ff"/>
    <path id="Path_105" data-name="Path 105" d="M667.73,445.59a1.317,1.317,0,0,0-1.819,0,53.954,53.954,0,0,0-9.244,9.441l-1.976-3.823c-.76-1.471-2.98-.172-2.221,1.3l2.89,5.592a1.3,1.3,0,0,0,2.221,0,52.083,52.083,0,0,1,10.148-10.69,1.294,1.294,0,0,0,0-1.819Z" transform="translate(-322.545 -235.439)" fill="#fff"/>
    <circle id="Ellipse_55" data-name="Ellipse 55" cx="16.289" cy="16.289" r="16.289" transform="translate(259.663 156.07)" fill="#6c63ff"/>
    <path id="Path_106" data-name="Path 106" d="M596.73,393.59a1.317,1.317,0,0,0-1.819,0,53.958,53.958,0,0,0-9.244,9.441l-1.976-3.823c-.76-1.471-2.98-.172-2.221,1.3l2.89,5.592a1.3,1.3,0,0,0,2.221,0,52.08,52.08,0,0,1,10.148-10.69,1.294,1.294,0,0,0,0-1.819Z" transform="translate(-312.415 -228.02)" fill="#fff"/>
    <path id="Path_107" data-name="Path 107" d="M851.244,380.512l10.723-39.922-28.656-5.425,1.541,27.4L797.2,401.336a10.28,10.28,0,1,0,9.776,11.588Z" transform="translate(-341.69 -219.736)" fill="#ffb6b6"/>
    <path id="Path_108" data-name="Path 108" d="M872.249,288.467c9.727,7.679-2.758,50.631-2.758,50.631-1.933-2.121-4.179,29.23-6.542,28.162-6.715-3.034-19.022-13.5-23.767-12.643-2.713.488.129-20.737.129-20.737s.523-12.17,1.506-27.815a26.272,26.272,0,0,1,13.2-21.643S862.522,280.788,872.249,288.467Z" transform="translate(-349.039 -212.374)" fill="#3f3d56"/>
    <path id="Path_109" data-name="Path 109" d="M207.8,192.676l11.789,52.611-75.546-4.7,20.543-51.669Z" transform="translate(-20.551 -26.954)" fill="#a0616a"/>
    <path id="Path_110" data-name="Path 110" d="M203.736,471.082h8.486l4.037-32.732H203.734Z" transform="translate(-29.068 -62.541)" fill="#a0616a"/>
    <path id="Path_111" data-name="Path 111" d="M467.768,672.04l13.415-.8v5.747l12.754,8.808a3.59,3.59,0,0,1-2.04,6.544H475.925l-2.753-5.685-1.075,5.685h-6.022Z" transform="translate(-295.973 -267.686)" fill="#2f2e41"/>
    <path id="Path_112" data-name="Path 112" d="M110.182,466.281l8.294,1.8,10.885-31.132-12.24-2.655Z" transform="translate(-15.72 -61.963)" fill="#a0616a"/>
    <path id="Path_113" data-name="Path 113" d="M374.616,666.648l13.28,2.062-1.218,5.617,10.6,11.312a3.59,3.59,0,0,1-3.381,5.963l-15.608-3.386-1.485-6.14-2.256,5.328-5.885-1.277Z" transform="translate(-282.074 -267.031)" fill="#2f2e41"/>
    <path id="Path_114" data-name="Path 114" d="M484.124,495.313c-5.956,32.731-7.445,46.863-7.445,46.863s4.467,5.207,1.489,8.185,0,8.925,0,8.925l-6.7,72.158-5.39-.873L453.1,628.483l-4.683-.757,2.978-67.691s-2.978-5.956-1.489-7.445-1.489-10.414-1.489-10.414L444.7,471.507l-23.066,77.366s2.237,2.978,0,5.207-6.688,13.392-6.688,13.392l-13.716,47.995-1.165,4.076-7.153-1.339-7.786-1.464-1.431-.266-2.545-.482-1.639-.308-.557-.1-2.7-.507.815-3.618.424-1.9,11.6-51.539.266-1.189.283-1.256s-1.489-3.718.74-5.956a5.813,5.813,0,0,0,1.489-5.207,2.032,2.032,0,0,1-.2-.25,3.088,3.088,0,0,1-.532-1.214c-.2-.932-.025-2.238,1.481-3.743a6.351,6.351,0,0,0,1.056-1.514c2.262-4.284,3.4-13.359,3.4-13.359s2.013-71.875,8.6-82.855c.349-.574,7.343-11.592,7.709-11.817,7.436-4.458,65.371,1.7,65.371,1.7s3.509,9.427,3.667,10.408C483.29,447.277,489.173,467.547,484.124,495.313Z" transform="translate(-283.158 -232.986)" fill="#2f2e41"/>
    <path id="Path_115" data-name="Path 115" d="M472.777,301.286s1.254-6.507-10.792-18.553c-6.377-2.126-17.427-.887-21.258,0-17.715,23.383-14.543,19.257-19.154,32.322-1.2,3.388-1.794,6.643-1.262,9.3,2.126,10.629,5.577,65.189,4.868,68.023s-5.669,6.377-.709,6.377,68.925-1.12,67.508-3.245S472.777,301.286,472.777,301.286Z" transform="translate(-289.416 -212.088)" fill="#6c63ff"/>
    <path id="Path_116" data-name="Path 116" d="M564.387,402.3a7.125,7.125,0,0,1-9.566-5.279l-25.069-3.561,8.716-9.857,22.47,4.893a7.164,7.164,0,0,1,3.449,13.8Z" transform="translate(-305.058 -226.648)" fill="#a0616a"/>
    <path id="Path_117" data-name="Path 117" d="M446.438,299.054c2.021-1.349,4.317-1.983,6.165-3.785,6.748,4.859,7.245-3.053,13.36,8.849s27.928,40.6,37.124,49.226S529.119,366.337,534,369.373a59.4,59.4,0,0,0,8.941,4.393c-1.957,3.813-3.043,7.991-5.49,11.635-13.827-1.694-31.957-7.227-42.152-9.932s-6.317-.689-10.51-3.861-.727-1.71-5.607-3-8.6-7.751-10.072-12.744c-3.5-3.58-6.507-7.449-9.974-10.993C455.131,329.551,450.675,314.3,446.438,299.054Z" transform="translate(-293.171 -214.044)" fill="#6c63ff"/>
    <circle id="Ellipse_56" data-name="Ellipse 56" cx="20.518" cy="20.518" r="20.518" transform="translate(148.578 20.539)" fill="#a0616a"/>
    <path id="Path_118" data-name="Path 118" d="M472.833,280.349c-.973-1.389-8.244-15.16-10.405-20.368a23.82,23.82,0,0,0-.42,3.418l-.021.428-.425.055c-.639.082-15.73,1.913-23.583-6.992-4.653-5.275-5.708-13.187-3.141-23.521a4.1,4.1,0,0,1-1.322-.509,5.678,5.678,0,0,1-2.421-4.124l-.435.117c-13.972-6.8-1.935-26.688,10.827-16.8a6.166,6.166,0,0,1,3.37.194,6.251,6.251,0,0,1,3.859,5.115c6.594-3.468,15.32-2.9,19.834-.3,1.89,1.09,2.975,2.462,3.168,3.993,5.331.3,11.065,5.491,11.065,12.848v.512h-.512a11.827,11.827,0,0,0-10.3,6.491,15.071,15.071,0,0,0,.463,15.377,21.683,21.683,0,0,1,2.992,16.578l-1.925,8.436Z" transform="translate(-290.028 -201.785)" fill="#2f2e41"/>
    <path id="Path_119" data-name="Path 119" d="M510.005,695.878a1.017,1.017,0,0,1-1.02,1.02h-240.3a1.02,1.02,0,1,1,0-2.04h240.3a1.017,1.017,0,0,1,1.02,1.02Z" transform="translate(-267.665 -271.055)" fill="#ccc"/>
    <path id="Path_120" data-name="Path 120" d="M892.005,695.878a1.017,1.017,0,0,1-1.02,1.02h-240.3a1.02,1.02,0,0,1,0-2.04h240.3a1.017,1.017,0,0,1,1.02,1.02Z" transform="translate(-322.167 -271.055)" fill="#ccc"/>
    <circle id="Ellipse_57" data-name="Ellipse 57" cx="9.08" cy="9.08" r="9.08" transform="translate(266.367 333.138)" fill="#e6e6e6"/>
    <circle id="Ellipse_58" data-name="Ellipse 58" cx="9.08" cy="9.08" r="9.08" transform="translate(327.237 342.569)" fill="#e6e6e6"/>
    <circle id="Ellipse_59" data-name="Ellipse 59" cx="9.08" cy="9.08" r="9.08" transform="translate(388.107 331.423)" fill="#e6e6e6"/>
  </g>
</svg>
