<svg xmlns="http://www.w3.org/2000/svg" width="476.365" height="322.152" viewBox="0 0 476.365 322.152">
  <g id="undraw_team_spirit_re_yl1v" transform="translate(0 0)">
    <path id="Path_11" data-name="Path 11" d="M195.709,547.716c-2.262,0-4.529.093-6.742.281l-.322.027c-14.683,1.3-25.422,8.828-24.981,17.516l.085,1.571c.056.993.116,2.061.166,3.245.027.584.824,1.033,1.816,1.033H526.889c25.463-.155,50.835-.349,75.4-.578a128.3,128.3,0,0,0,13.8-.715c6.828-.808,11.567-2.41,14.49-4.9h0c3.634-3.084,3.749-6.968,3.529-11.356-.448-8.86-.892-18.169-1.335-27.449-.391-8.179-.781-16.336-1.17-24.145-.241-4.634-.776-8.725-4.9-11.852-4.473-3.381-12.632-5.095-24.249-5.095h-.422c-36.407.13-72.48,12.648-89.763,31.15-1.99,2.131-3.845,4.412-5.638,6.618a89.682,89.682,0,0,1-8.66,9.642,40.706,40.706,0,0,1-5.72,4.459c-.14.1-.3.2-.471.3-.389.253-.795.5-1.191.715a41.357,41.357,0,0,1-7.3,3.317l-.256.086c-.192.069-.4.138-.61.2-1.463.47-2.983.876-4.506,1.2a72.555,72.555,0,0,1-22.265,1.034,107.586,107.586,0,0,1-22.138-4.511c-7.58-2.4-14.675-5.382-21.536-8.27-3.014-1.269-6.131-2.581-9.244-3.824-.585-.234-1.161-.463-1.745-.691-3.8-1.482-7.249-2.706-10.538-3.742a104.014,104.014,0,0,0-25.114-4.651c-9.055-.5-17.034.439-23.71,2.772a40.711,40.711,0,0,0-5.363,2.311c-7.908,4.107-12.783,10.167-17.5,16.029-5.864,7.291-11.929,14.83-23.9,18.739-13.817,4.514-33.986,2.639-48.255-.623-4.486-1.026-8.967-2.205-13.3-3.347q-2.625-.692-5.254-1.374c-3.444-.889-6.263-1.57-8.87-2.146l-.825-.183c-.459-.1-.918-.2-1.386-.294-3.1-.65-5.982-1.162-8.822-1.565l-.672-.1c-1.347-.177-2.607-.325-3.843-.449l-.493-.049C200.724,547.831,198.219,547.716,195.709,547.716Z" transform="translate(-163.651 -304.956)" fill="#f2f2f2"/>
    <path id="Path_12" data-name="Path 12" d="M889.838,608.452c10.162-9.158,25.278-13.762,37.957-8.627a63.028,63.028,0,0,0-28.323,32.716c-2.018,5.37-3.7,11.554-8.669,14.429a14.09,14.09,0,0,1-10.4,1.013,41.844,41.844,0,0,1-9.77-4.309l-.891-.02C873.745,630.571,879.676,617.609,889.838,608.452Z" transform="translate(-484.322 -355.996)" fill="#e6e6e6"/>
    <path id="Path_13" data-name="Path 13" d="M927.843,601.608a53.872,53.872,0,0,0-29.971,14.154,23.2,23.2,0,0,0-4.555,5.664,13.307,13.307,0,0,0-1.538,6.832c.055,2.215.367,4.475-.117,6.665a8.147,8.147,0,0,1-4.053,5.289,21.169,21.169,0,0,1-8.126,2.219c-3.107.381-6.34.727-9.03,2.47-.326.211-.634-.307-.309-.518,4.679-3.032,10.6-1.929,15.632-3.952a8.251,8.251,0,0,0,5.16-5.108c.643-2.191.323-4.522.248-6.764a14.2,14.2,0,0,1,1.255-6.736A21.447,21.447,0,0,1,896.761,616a52.266,52.266,0,0,1,13.282-9.509,54.824,54.824,0,0,1,17.795-5.49c.384-.049.387.554.006.6Z" transform="translate(-484.44 -357.501)" fill="#fff"/>
    <path id="Path_14" data-name="Path 14" d="M924.408,614.434a8.082,8.082,0,0,1,.891-10.428c.276-.272.712.144.436.417a7.484,7.484,0,0,0-.809,9.7c.227.315-.292.622-.518.309Z" transform="translate(-508.466 -358.825)" fill="#fff"/>
    <path id="Path_15" data-name="Path 15" d="M909.263,646.989a15.578,15.578,0,0,0,11.132-2.229c.327-.21.635.308.309.518a16.2,16.2,0,0,1-11.589,2.3C908.733,647.5,908.882,646.92,909.263,646.989Z" transform="translate(-502.1 -377.351)" fill="#fff"/>
    <path id="Path_16" data-name="Path 16" d="M953.193,607.219a4.575,4.575,0,0,0,3.422,2.672c.383.064.233.648-.147.585a5.126,5.126,0,0,1-3.792-2.947.311.311,0,0,1,.1-.413.3.3,0,0,1,.413.1Z" transform="translate(-521.966 -360.258)" fill="#fff"/>
    <path id="Path_17" data-name="Path 17" d="M941.154,669.091c-.24-.033-.481-.066-.725-.1a60.241,60.241,0,0,0-9.761-.5c-.252,0-.508.011-.76.022a63.517,63.517,0,0,0-22.789,5.246,61.683,61.683,0,0,0-8.277,4.4c-3.651,2.311-7.425,5.108-11.505,6.051a10.578,10.578,0,0,1-1.289.23l-16.861-14.6c-.022-.052-.047-.1-.069-.154l-.7-.552c.13-.1.267-.192.4-.288.075-.056.154-.109.23-.164.051-.036.1-.072.147-.108l.048-.032c.044-.036.089-.064.13-.1q1.148-.813,2.312-1.613s0,0,.01,0a90.7,90.7,0,0,1,18.887-10.153c.2-.076.4-.155.612-.224a58.861,58.861,0,0,1,9.246-2.6,52,52,0,0,1,5.214-.728,43.27,43.27,0,0,1,13.5.956c8.812,2.043,16.872,6.882,21.646,14.428C940.92,668.7,941.034,668.894,941.154,669.091Z" transform="translate(-483.719 -381.1)" fill="#e6e6e6"/>
    <path id="Path_18" data-name="Path 18" d="M941.235,676.454a53.871,53.871,0,0,0-32.451-6.743,23.2,23.2,0,0,0-7.047,1.78,13.307,13.307,0,0,0-5.341,4.529c-1.29,1.8-2.4,3.794-4.106,5.251a8.147,8.147,0,0,1-6.42,1.783,21.167,21.167,0,0,1-7.824-3.12c-2.71-1.567-5.5-3.237-8.7-3.464-.387-.028-.322-.627.065-.6,5.562.4,9.625,4.842,14.861,6.256a8.25,8.25,0,0,0,7.2-.971c1.833-1.363,2.98-3.416,4.27-5.252a14.2,14.2,0,0,1,5.057-4.623,21.446,21.446,0,0,1,6.953-2.044,52.262,52.262,0,0,1,16.33.4,54.826,54.826,0,0,1,17.514,6.33c.336.192-.025.675-.359.485Z" transform="translate(-484.024 -388.281)" fill="#fff"/>
    <path id="Path_19" data-name="Path 19" d="M948.408,662.892a8.083,8.083,0,0,1,6.99-7.79c.385-.051.482.544.1.6a7.484,7.484,0,0,0-6.487,7.259C949,663.345,948.4,663.278,948.408,662.892Z" transform="translate(-520.046 -382.069)" fill="#fff"/>
    <path id="Path_20" data-name="Path 20" d="M919.637,680.128a15.578,15.578,0,0,0,10.23,4.922c.387.029.322.628-.065.6a16.2,16.2,0,0,1-10.635-5.144c-.264-.285.207-.662.47-.378Z" transform="translate(-506.731 -393.39)" fill="#fff"/>
    <path id="Path_21" data-name="Path 21" d="M979.7,673.307a4.575,4.575,0,0,0,1.124,4.193c.267.282-.2.658-.47.378a5.127,5.127,0,0,1-1.253-4.636.312.312,0,0,1,.332-.267A.3.3,0,0,1,979.7,673.307Z" transform="translate(-533.926 -390.187)" fill="#fff"/>
    <path id="Path_22" data-name="Path 22" d="M409.462,617.409c8.321-12.621,23.207-21.751,38.2-19.787a69.653,69.653,0,0,0-21.191,42.87c-.665,6.305-.748,13.388-5.258,17.844-2.806,2.773-6.893,3.936-10.837,3.975a46.243,46.243,0,0,1-11.648-1.891l-.958.226C398.4,645.543,401.141,630.03,409.462,617.409Z" transform="translate(-269.973 -355.845)" fill="#e6e6e6"/>
    <path id="Path_23" data-name="Path 23" d="M447.655,597.869a59.535,59.535,0,0,0-28.117,23.476,25.638,25.638,0,0,0-3.3,7.325,14.7,14.7,0,0,0,.256,7.734c.675,2.354,1.638,4.684,1.729,7.161a9,9,0,0,1-2.863,6.784c-2.257,2.216-5.176,3.488-8.073,4.634-3.217,1.272-6.579,2.542-8.97,5.154-.29.317-.764-.152-.475-.468,4.161-4.545,10.8-5.012,15.619-8.576a9.118,9.118,0,0,0,4.1-6.9c.078-2.523-.913-4.926-1.617-7.3a15.69,15.69,0,0,1-.532-7.553,23.7,23.7,0,0,1,3-7.425,57.759,57.759,0,0,1,11.561-13.865,60.591,60.591,0,0,1,17.5-10.823C447.878,597.066,448.049,597.71,447.655,597.869Z" transform="translate(-269.969 -355.774)" fill="#fff"/>
    <path id="Path_24" data-name="Path 24" d="M438.57,625.337a8.932,8.932,0,0,1-1.948-11.4c.22-.368.8-.044.582.325a8.271,8.271,0,0,0,1.834,10.6C439.368,625.136,438.9,625.609,438.57,625.337Z" transform="translate(-287.053 -363.301)" fill="#fff"/>
    <path id="Path_25" data-name="Path 25" d="M430.911,662.272a17.216,17.216,0,0,0,11.286-5.481c.291-.315.765.153.475.468a17.907,17.907,0,0,1-11.756,5.679c-.428.033-.431-.634,0-.666Z" transform="translate(-284.882 -382.79)" fill="#fff"/>
    <path id="Path_26" data-name="Path 26" d="M466.3,610.143a5.056,5.056,0,0,0,4.4,1.906c.428-.038.43.628,0,.666a5.665,5.665,0,0,1-4.875-2.1.344.344,0,0,1,0-.471A.335.335,0,0,1,466.3,610.143Z" transform="translate(-300.843 -361.609)" fill="#fff"/>
    <path id="Path_27" data-name="Path 27" d="M474.321,668.982c-.266.031-.533.063-.8.1a66.593,66.593,0,0,0-10.578,2.185c-.269.074-.54.153-.806.235a70.193,70.193,0,0,0-22.915,11.95,68.16,68.16,0,0,0-7.629,7.005c-3.261,3.488-6.52,7.529-10.622,9.672a11.681,11.681,0,0,1-1.315.6L397.56,689.811c-.038-.05-.078-.1-.116-.145l-.9-.4c.113-.139.233-.28.345-.419.065-.081.135-.159.2-.24.045-.053.09-.106.128-.156.015-.018.03-.035.042-.048.037-.05.078-.093.113-.139q1-1.189,2.024-2.368c0-.005,0-.005.01-.008a100.235,100.235,0,0,1,17.376-16.113c.193-.137.389-.278.592-.41a65.039,65.039,0,0,1,9.165-5.355,57.5,57.5,0,0,1,5.374-2.23,47.819,47.819,0,0,1,14.7-2.732c9.993-.266,19.96,2.667,27.165,9.41C473.96,668.634,474.139,668.8,474.321,668.982Z" transform="translate(-269.417 -383.857)" fill="#e6e6e6"/>
    <path id="Path_28" data-name="Path 28" d="M474.416,675.479a59.534,59.534,0,0,0-36.584,1.816,25.636,25.636,0,0,0-7.042,3.864,14.7,14.7,0,0,0-4.453,6.33c-.878,2.286-1.512,4.726-2.931,6.759a9,9,0,0,1-6.37,3.693c-3.136.41-6.233-.331-9.236-1.161-3.334-.922-6.783-1.932-10.265-1.286-.422.078-.519-.581-.1-.659,6.059-1.123,11.641,2.5,17.634,2.556a9.118,9.118,0,0,0,7.426-3.041c1.581-1.967,2.237-4.483,3.106-6.8a15.691,15.691,0,0,1,4.123-6.352,23.7,23.7,0,0,1,6.868-4.121,57.759,57.759,0,0,1,17.578-4.11,60.592,60.592,0,0,1,20.492,1.9c.413.111.162.729-.249.618Z" transform="translate(-269.701 -390.097)" fill="#fff"/>
    <path id="Path_29" data-name="Path 29" d="M478.222,669.459a8.932,8.932,0,0,1,5.309-10.276c.4-.162.667.448.269.61a8.271,8.271,0,0,0-4.919,9.569c.1.417-.561.512-.659.1Z" transform="translate(-306.408 -383.912)" fill="#fff"/>
    <path id="Path_30" data-name="Path 30" d="M450.7,697.451a17.216,17.216,0,0,0,12.311,2.419c.422-.077.519.582.1.659a17.907,17.907,0,0,1-12.806-2.543C449.936,697.754,450.335,697.22,450.7,697.451Z" transform="translate(-293.766 -401.277)" fill="#fff"/>
    <path id="Path_31" data-name="Path 31" d="M513.147,673.422a5.056,5.056,0,0,0,2.368,4.172c.364.227-.035.76-.4.535a5.665,5.665,0,0,1-2.63-4.61.344.344,0,0,1,.281-.378A.335.335,0,0,1,513.147,673.422Z" transform="translate(-322.073 -390.261)" fill="#fff"/>
    <path id="Path_32" data-name="Path 32" d="M520.068,418.948a5.328,5.328,0,0,0-.7-8.139l8.7-42.089-9.383,2.96-7,40.718a5.357,5.357,0,0,0,8.382,6.551Z" transform="translate(-321.357 -252.011)" fill="#ffb6b6"/>
    <path id="Path_33" data-name="Path 33" d="M541.773,250.976l-5.812-4.387s-5.127-.363-6.035,8.883-6.593,44.733-6.593,44.733L514.439,341.4l12.311,2.7,9.526-44.453,9.535-30.668Z" transform="translate(-322.96 -196.544)" fill="#e6e6e6"/>
    <path id="Path_34" data-name="Path 34" d="M532.542,352.838l-27.88-21.678a2.079,2.079,0,0,1-.365-2.914l18.969-24.4a2.079,2.079,0,0,1,2.914-.365l27.879,21.678a2.079,2.079,0,0,1,.365,2.914l-18.969,24.4A2.079,2.079,0,0,1,532.542,352.838Z" transform="translate(-318.157 -222.187)" fill="#3f3d56"/>
    <path id="Path_35" data-name="Path 35" d="M534.3,352.5l-25.514-19.839a1.846,1.846,0,0,1-.324-2.587l17.2-22.115a1.846,1.846,0,0,1,2.587-.324l25.514,19.839a1.846,1.846,0,0,1,.324,2.587l-17.2,22.116a1.846,1.846,0,0,1-2.587.323Z" transform="translate(-320.071 -224.094)" fill="#fff"/>
    <path id="Path_36" data-name="Path 36" d="M515.36,342.808a.461.461,0,0,1-.081-.647L523.954,331a.461.461,0,1,1,.728.566l-8.675,11.157a.461.461,0,0,1-.647.081Z" transform="translate(-323.298 -234.801)" fill="#e4e4e4"/>
    <path id="Path_37" data-name="Path 37" d="M517.994,344.856a.461.461,0,0,1-.081-.647l8.675-11.157a.461.461,0,0,1,.728.566l-8.675,11.157a.462.462,0,0,1-.647.081Z" transform="translate(-324.494 -235.732)" fill="#e4e4e4"/>
    <path id="Path_38" data-name="Path 38" d="M529.632,340.584a.461.461,0,0,1-.081-.647l3.76-4.836a.461.461,0,0,1,.728.566l-3.76,4.836A.461.461,0,0,1,529.632,340.584Z" transform="translate(-329.779 -236.662)" fill="#e4e4e4"/>
    <path id="Path_39" data-name="Path 39" d="M533.183,347.341a.461.461,0,0,1-.081-.647l13.7-17.613a.461.461,0,1,1,.728.566l-13.7,17.613A.461.461,0,0,1,533.183,347.341Z" transform="translate(-331.392 -233.928)" fill="#e4e4e4"/>
    <path id="Path_40" data-name="Path 40" d="M535.817,349.389a.461.461,0,0,1-.081-.647l13.7-17.613a.461.461,0,1,1,.728.566l-13.7,17.613A.461.461,0,0,1,535.817,349.389Z" transform="translate(-332.588 -234.858)" fill="#e4e4e4"/>
    <path id="Path_41" data-name="Path 41" d="M541.8,354.038a.462.462,0,0,1-.081-.647l13.7-17.613a.461.461,0,1,1,.728.566l-13.695,17.613A.462.462,0,0,1,541.8,354.038Z" transform="translate(-335.304 -236.969)" fill="#e4e4e4"/>
    <path id="Path_42" data-name="Path 42" d="M544.43,356.086a.461.461,0,0,1-.081-.647l13.7-17.613a.461.461,0,0,1,.728.566L545.077,356A.462.462,0,0,1,544.43,356.086Z" transform="translate(-336.5 -237.899)" fill="#e4e4e4"/>
    <path id="Path_43" data-name="Path 43" d="M550.41,360.735a.461.461,0,0,1-.081-.647l13.7-17.613a.461.461,0,1,1,.728.566l-13.7,17.613A.461.461,0,0,1,550.41,360.735Z" transform="translate(-339.216 -240.011)" fill="#e4e4e4"/>
    <path id="Path_44" data-name="Path 44" d="M553.044,362.783a.462.462,0,0,1-.081-.647l13.7-17.613a.461.461,0,1,1,.728.566l-13.7,17.613a.461.461,0,0,1-.647.081Z" transform="translate(-340.412 -240.941)" fill="#e4e4e4"/>
    <circle id="Ellipse_47" data-name="Ellipse 47" cx="0.189" cy="0.189" r="0.189" transform="translate(189.553 141.918)" fill="#fff"/>
    <path id="Path_45" data-name="Path 45" d="M557.581,166.807a45.565,45.565,0,0,1-3.251,10.377c-8.555,18.1,15.809,12.2,24.516,12.2,9.52,0,18.628,5.006,17.237-17.237-.594-9.5-7.717-17.237-17.237-17.237C570.714,154.909,559.281,158.524,557.581,166.807Z" transform="translate(-340.262 -154.909)" fill="#2f2e41"/>
    <path id="Path_46" data-name="Path 46" d="M443.381,482.056H435.27l-3.86-31.284h11.971Z" transform="translate(-195.924 -204.717)" fill="#ffb6b6"/>
    <path id="Path_47" data-name="Path 47" d="M601.2,671.782H595.38l-1.038-5.492-2.659,5.492H576.256a3.468,3.468,0,0,1-1.971-6.322l12.319-8.508V651.4l12.958.773Z" transform="translate(-349.459 -380.389)" fill="#2f2e41"/>
    <path id="Path_48" data-name="Path 48" d="M518.094,468.446l-6.509,4.84-21.765-22.8,9.606-7.144Z" transform="translate(-222.45 -201.342)" fill="#ffb6b6"/>
    <path id="Path_49" data-name="Path 49" d="M705.664,647.942,701,651.413l-4.11-3.787,1.143,5.993-12.379,9.205a3.468,3.468,0,0,1-5.353-3.9l4.809-14.179-3.313-4.455,10.86-7.112Z" transform="translate(-398.201 -372.115)" fill="#2f2e41"/>
    <path id="Path_50" data-name="Path 50" d="M404.675,220.16l38.5-6-7.657-23.034H404.675Z" transform="translate(-183.782 -86.8)" fill="#ffb6b6"/>
    <path id="Path_51" data-name="Path 51" d="M602.477,367.291s15.389,13.3,8.289,51.2L602.1,455.626l23.617,41-12.009,6.55-29.1-40.451-13.318-31.239-7.044-54.75Z" transform="translate(-345.577 -251.362)" fill="#2f2e41"/>
    <path id="Path_52" data-name="Path 52" d="M426.172,346.3l-.926,14.335,2.71,42.448,13.452,4.632,2.547-43.492Z" transform="translate(-193.124 -157.271)" fill="#2f2e41"/>
    <path id="Path_53" data-name="Path 53" d="M568.467,226.8l14.883.581,5.931,9.846,13.533,2.642-8.079,40.87,1.486,23.263-13.475-.082a39.414,39.414,0,0,0-26.372,9.908h0l.4-30.2-5.8-22.541,1.3-23.636L563.17,236.1Z" transform="translate(-339.556 -187.56)" fill="#e6e6e6"/>
    <circle id="Ellipse_48" data-name="Ellipse 48" cx="14.007" cy="14.007" r="14.007" transform="translate(223.15 6.456)" fill="#ffb6b6"/>
    <path id="Path_54" data-name="Path 54" d="M574.3,164.288a16.044,16.044,0,0,1,24.393,14c-7.137,1.792-14.635,3.163-22.247.429l-1.8-4.4-1.06,4.4c-2.318.947-4.642,1.749-6.966-.009a16.382,16.382,0,0,1,7.676-14.425Z" transform="translate(-346.656 -158.103)" fill="#2f2e41"/>
    <path id="Path_55" data-name="Path 55" d="M641.116,417.719,643,434.855a2.091,2.091,0,0,0,2,1.477h8.7a2.092,2.092,0,0,0,2-1.477l1.564-13.133a3.176,3.176,0,1,0,.819-5.975,2.073,2.073,0,0,0-1.587-.734H643.116a2.092,2.092,0,0,0-2,2.707Zm16.428,3.114.958-3.114a2.069,2.069,0,0,0,.032-1.107c.041,0,.08-.012.121-.012a2.268,2.268,0,1,1,0,4.536,2.239,2.239,0,0,1-1.111-.3Z" transform="translate(-380.448 -273.034)" fill="#6c63ff"/>
    <path id="Path_56" data-name="Path 56" d="M658.8,412.267a5.328,5.328,0,0,1,.741-8.136L651.055,362l9.367,3.008,6.79,40.753a5.357,5.357,0,0,1-8.416,6.508Z" transform="translate(-385.004 -248.958)" fill="#ffb6b6"/>
    <path id="Path_57" data-name="Path 57" d="M631.932,255.131l5.812-4.387s5.127-.363,6.035,8.883,6.593,44.733,6.593,44.733l8.894,41.192-12.311,2.7L637.43,303.8l-9.535-30.668Z" transform="translate(-374.486 -198.431)" fill="#e6e6e6"/>
    <circle id="Ellipse_49" data-name="Ellipse 49" cx="3.29" cy="3.29" r="3.29" transform="translate(203.995 88.474)" fill="#6c63ff"/>
    <path id="Path_58" data-name="Path 58" d="M187.544,556H194.4l3.262-26.446h-10.12Z" transform="translate(-85.172 -240.496)" fill="#ffb6b6"/>
    <path id="Path_59" data-name="Path 59" d="M347.992,726.265h1.93l7.535-3.064,4.038,3.064h0a8.605,8.605,0,0,1,8.6,8.6v.28H347.992Z" transform="translate(-247.369 -412.997)" fill="#2f2e41"/>
    <path id="Path_60" data-name="Path 60" d="M236.221,548.628l6.688,1.51,9.007-25.078-9.871-2.229Z" transform="translate(-107.279 -237.442)" fill="#ffb6b6"/>
    <path id="Path_61" data-name="Path 61" d="M396.022,719.541l1.882.425,8.024-1.329,3.264,3.878h0a8.605,8.605,0,0,1,6.5,10.289l-.062.273-21.565-4.869Z" transform="translate(-268.293 -410.924)" fill="#2f2e41"/>
    <path id="Path_62" data-name="Path 62" d="M328.2,473.884l6.2,69.465s-2.323,41.7,5.173,56.379h10.872l5.383-60.187.676-40.4,23.308,34.082-14.845,65.519,13.38,1.2,24.09-71.1L375.97,462.088Z" transform="translate(-238.38 -294.413)" fill="#2f2e41"/>
    <circle id="Ellipse_50" data-name="Ellipse 50" cx="15.99" cy="15.99" r="15.99" transform="translate(80.324 36.87)" fill="#ffb8b8"/>
    <path id="Path_63" data-name="Path 63" d="M347.171,298.638l-13.118-5.628-6.386-6.773-15.953,2.573-4.233,7.257-13.7,12.74,16.053,72.584-.486,15.853s10.274,4.625,54.832-6.024c.534-.128-.584-.687-.584-.687Z" transform="translate(-222.749 -214.551)" fill="#3f3d56"/>
    <path id="Path_64" data-name="Path 64" d="M309.253,267.986q-.167-.228-.331-.46c-.044.093-.079.189-.129.279Z" transform="translate(-229.567 -206.054)" fill="#2f2e41"/>
    <path id="Path_65" data-name="Path 65" d="M341.379,223.924a10.2,10.2,0,0,0-5.338-5.157,9.741,9.741,0,0,0-7.3.006,14.71,14.71,0,0,0-6.936-2.525,7.758,7.758,0,0,0-6.613,2.807,10.8,10.8,0,0,1-1.155,1.5c-1.225,1.135-3.087.971-4.716.739l2.192,1.878-2.653.693,3.1,1.878c-3,1.8-4.357,5.723-4,9.287a19.639,19.639,0,0,0,3.917,9.2c.777-1.639.61-3.6.6-5.448-.013-1.951.332-4.167,1.9-5.257a6.257,6.257,0,0,1,3.682-.761,169.187,169.187,0,0,1,19.192,1.2,5.4,5.4,0,0,1,2.457.713c1.409.961,1.683,2.944,1.824,4.684a33.938,33.938,0,0,0,1.083-8.8A16.216,16.216,0,0,0,341.379,223.924Z" transform="translate(-229.16 -182.76)" fill="#2f2e41"/>
    <circle id="Ellipse_51" data-name="Ellipse 51" cx="25.167" cy="25.167" r="25.167" transform="translate(92.03 177.834)" fill="#fff"/>
    <path id="Path_66" data-name="Path 66" d="M356.95,479.674a25.858,25.858,0,0,0-3.862.29c-.657.1-1.295.219-1.927.37a25.713,25.713,0,0,0-10.9,44.629c.431.364.867.716,1.32,1.051a25.72,25.72,0,1,0,15.368-46.34Zm0,50.333a24.466,24.466,0,0,1-14.541-4.77c-.459-.336-.9-.682-1.331-1.051a24.593,24.593,0,0,1,10.973-42.9c.626-.129,1.253-.229,1.89-.308a24.345,24.345,0,0,1,3.009-.185,24.607,24.607,0,0,1,0,49.215Z" transform="translate(-239.754 -302.4)" fill="#3f3d56"/>
    <rect id="Rectangle_153" data-name="Rectangle 153" width="27.963" height="3.356" rx="1.678" transform="translate(131.179 197.967) rotate(180)" fill="#6c63ff"/>
    <rect id="Rectangle_154" data-name="Rectangle 154" width="27.963" height="3.356" rx="1.678" transform="translate(131.179 204.678) rotate(180)" fill="#6c63ff"/>
    <rect id="Rectangle_155" data-name="Rectangle 155" width="27.963" height="3.356" rx="1.678" transform="translate(131.179 211.389) rotate(180)" fill="#6c63ff"/>
    <path id="Path_67" data-name="Path 67" d="M721.693,553.37H714.5l-3.42-27.73h10.611Z" transform="translate(-322.936 -238.717)" fill="#9e616a"/>
    <path id="Path_68" data-name="Path 68" d="M659.382,553.37h-7.189l-3.42-27.73h10.611Z" transform="translate(-294.639 -238.717)" fill="#9e616a"/>
    <path id="Path_69" data-name="Path 69" d="M813.93,735.149H791.822v-.28a8.605,8.605,0,0,1,8.6-8.6h0l4.038-3.064L812,726.264h1.93Z" transform="translate(-448.933 -412.997)" fill="#2f2e41"/>
    <path id="Path_70" data-name="Path 70" d="M877.93,735.149H855.822v-.28a8.605,8.605,0,0,1,8.6-8.6h0l4.038-3.064L876,726.264h1.93Z" transform="translate(-477.999 -412.997)" fill="#2f2e41"/>
    <path id="Path_71" data-name="Path 71" d="M809.078,426.87,798.152,493.4l2.974,9.914-3.9,7.022L802.953,572l-2.326,5.121,6.5,4.008H820.35l.7-55.826,3.267-8.2v-4.517l6.65-34.041,1.224,47.673,1.934,8.209-1.625,5.845,2.123,4.095,5.639,37.975h14.828l-1.147-8.835h0a6.53,6.53,0,0,0,3.428-7.226l-.85-3.872,1.935-11.45,3.524-63.878-.993-51.541L843.642,422.28Z" transform="translate(-451.386 -276.335)" fill="#2f2e41"/>
    <circle id="Ellipse_219" data-name="Ellipse 219" cx="13.777" cy="13.777" r="13.777" transform="translate(368.964 37.548)" fill="#9e616a"/>
    <path id="Path_72" data-name="Path 72" d="M801.186,454.718a5.9,5.9,0,0,0-.944-8.992l5.357-20.259-10.321,3.472-3.5,18.706a5.929,5.929,0,0,0,9.413,7.074Z" transform="translate(-448.546 -277.782)" fill="#9e616a"/>
    <path id="Path_1101" data-name="Path 1101" d="M806.842,300.477l-2.215-.46-1.889,1.046s-5.278,7.037-5.278,13.488-6.451,68.611-6.451,68.611l11.728,5.278,9.383-48.673Z" transform="translate(-448.563 -220.81)" fill="#e6e6e6"/>
    <path id="Path_1104" data-name="Path 1104" d="M863.347,221.608s3.6-6.888-4.324-7.515c0,0-6.758-6.13-13.646-1.121a6.918,6.918,0,0,0-5.812,4.252s-2.955-1.121-3.6,1.879c0,0-2.162,6.262,0,11.9s2.881,6.262,2.881,6.262-3.553-11.816,5.1-12.442,18.327-6.031,19.047.857,1.805,8.586,1.805,8.586S871.634,224.426,863.347,221.608Z" transform="translate(-468.542 -180.384)" fill="#2f2e41"/>
    <path id="Path_73" data-name="Path 73" d="M940.913,520.691a4.216,4.216,0,0,1-2.818-1.075L896.4,482.5a4.252,4.252,0,0,1-.348-6l26.709-30a4.251,4.251,0,0,1,6-.349l41.693,37.114a4.247,4.247,0,0,1,.348,6l-26.709,30a4.217,4.217,0,0,1-2.926,1.416C941.08,520.689,941,520.691,940.913,520.691Z" transform="translate(-495.782 -286.69)" fill="#fff"/>
    <path id="Path_74" data-name="Path 74" d="M940.685,520.738a4.486,4.486,0,0,1-3-1.144l-41.693-37.113a4.526,4.526,0,0,1-.371-6.382l26.709-30a4.526,4.526,0,0,1,6.381-.371l41.693,37.114a4.52,4.52,0,0,1,.371,6.381l-26.709,30a4.492,4.492,0,0,1-3.114,1.508C940.864,520.735,940.775,520.738,940.685,520.738Zm-14.976-75.065a3.419,3.419,0,0,0-2.562,1.147l-26.709,30a3.432,3.432,0,0,0,.281,4.84l41.693,37.113a3.427,3.427,0,0,0,4.84-.281l26.709-30a3.428,3.428,0,0,0-.281-4.84l-41.693-37.114a3.414,3.414,0,0,0-2.278-.867Z" transform="translate(-495.555 -286.463)" fill="#3f3d56"/>
    <path id="Path_75" data-name="Path 75" d="M978.073,504.245a1.831,1.831,0,0,1-1.221-.464l-32.727-29.133a1.838,1.838,0,1,1,2.444-2.745L979.3,501.036a1.837,1.837,0,0,1-1.223,3.21Z" transform="translate(-517.821 -298.66)" fill="#6c63ff"/>
    <path id="Path_76" data-name="Path 76" d="M966.632,517.093a1.83,1.83,0,0,1-1.221-.464L932.684,487.5a1.838,1.838,0,0,1,2.444-2.745l32.727,29.133a1.837,1.837,0,0,1-1.223,3.209Z" transform="translate(-512.625 -304.494)" fill="#6c63ff"/>
    <path id="Path_77" data-name="Path 77" d="M955.2,529.94a1.829,1.829,0,0,1-1.221-.465l-32.727-29.132a1.838,1.838,0,1,1,2.444-2.745l32.727,29.133a1.837,1.837,0,0,1-1.223,3.21Z" transform="translate(-507.431 -310.329)" fill="#6c63ff"/>
    <path id="Path_78" data-name="Path 78" d="M914.766,456.783a5.9,5.9,0,0,1,3.226-8.447l.035-20.956,9.081,6.01-1.426,18.978a5.929,5.929,0,0,1-10.917,4.414Z" transform="translate(-504.429 -278.651)" fill="#9e616a"/>
    <path id="Path_1100" data-name="Path 1100" d="M913.511,308.128l4.057-3.91,2.98,2.151s2.932,3.519,5.278,14.074,0,68.611,0,68.611l-12.9-1.759,1.759-30.494L909.406,331Z" transform="translate(-502.333 -222.717)" fill="#e6e6e6"/>
    <path id="Path_79" data-name="Path 79" d="M878.03,293.266l-13.668-6.529-9.28-8.607L838.161,278l-5.459,7.1-14.411,4.9,2.4,49.69-1.638,3.821s1.141,1.031,1.662,1.607-.72,5.4-.72,5.4l-.7,5.25,1.942,1.387-2.524,2.981-.627,4.7s44.059-10.951,52.383,7.19c.44.958-.643-8.409-.643-8.409l-1.083-6.858,1.075-6.155,1.638-1.638-2.746-2.746,1.761-13.032Z" transform="translate(-460.862 -210.812)" fill="#3f3d56"/>
    <path id="Path_80" data-name="Path 80" d="M346.348,482.131a6.332,6.332,0,0,0-4.642-8.527l-3.036-22.295-8.8,7.7L334.1,479a6.366,6.366,0,0,0,12.248,3.135Z" transform="translate(-239.137 -289.518)" fill="#ffb8b8"/>
    <path id="Path_1101-2" data-name="Path 1101" d="M292.9,326.838l-2.386.457-1.442,1.816s-2.333,9.152.325,15.548,21.876,70.686,21.876,70.686l13.8.4L314.324,363.62Z" transform="translate(-220.181 -232.99)" fill="#3f3d56"/>
    <path id="Path_81" data-name="Path 81" d="M392.933,475.608a6.332,6.332,0,0,1,1.128-9.643l-5.5-21.819L399.6,448l3.526,20.128a6.366,6.366,0,0,1-10.2,7.476Z" transform="translate(-265.795 -286.265)" fill="#ffb8b8"/>
    <path id="Path_1101-3" data-name="Path 1101" d="M382.6,309.948l2.384-.466L387,310.629s5.577,7.622,5.5,14.548,6.058,73.745,6.058,73.745L385.9,404.44l-9.458-52.376Z" transform="translate(-260.289 -225.108)" fill="#3f3d56"/>
  </g>
</svg>
