<svg id="Cancel" xmlns="http://www.w3.org/2000/svg" width="45" height="45" viewBox="0 0 45 45">
  <path id="Path_121" data-name="Path 121" d="M22.5,0A22.5,22.5,0,1,0,45,22.5,22.5,22.5,0,0,0,22.5,0Zm0,42.188A19.688,19.688,0,1,1,42.188,22.5,19.687,19.687,0,0,1,22.5,42.188Z" fill="#121313" fill-rule="evenodd"/>
  <path id="Path_122" data-name="Path 122" d="M28.316,26.267l-7.408-7.41,7.366-7.305a1.4,1.4,0,0,0,0-1.988,1.431,1.431,0,0,0-2.008,0l-7.356,7.3L11.443,9.392a1.422,1.422,0,0,0-2.008,2.014l7.455,7.456L9.393,26.3a1.4,1.4,0,0,0,0,1.988,1.43,1.43,0,0,0,2.01,0l7.487-7.425,7.419,7.419a1.421,1.421,0,1,0,2.007-2.012Z" transform="translate(3.647 3.646)" fill="#121313" fill-rule="evenodd"/>
</svg>
