<?xml version="1.0" standalone="no"?>
<!DOCTYPE svg PUBLIC "-//W3C//DTD SVG 20010904//EN"
 "http://www.w3.org/TR/2001/REC-SVG-20010904/DTD/svg10.dtd">
<svg version="1.0" xmlns="http://www.w3.org/2000/svg"
 width="147.000000pt" height="147.000000pt" viewBox="0 0 147.000000 147.000000"
 preserveAspectRatio="xMidYMid meet">

<g transform="translate(0.000000,147.000000) scale(0.100000,-0.100000)"
fill="#000000" stroke="none">
<path d="M1175 1460 c-166 -27 -233 -66 -426 -250 l-152 -144 -121 -2 c-164
-1 -177 -8 -346 -178 -115 -116 -133 -139 -124 -154 12 -19 82 -29 219 -31
l80 -1 193 -193 193 -193 6 -135 c6 -142 13 -169 42 -169 9 0 79 62 153 138
161 163 168 178 168 356 l0 111 135 135 c156 155 194 207 231 316 23 67 28
100 31 219 4 107 2 144 -9 158 -11 14 -32 18 -113 22 -55 2 -127 0 -160 -5z
m213 -159 c3 -114 -23 -230 -70 -307 -18 -31 -147 -168 -312 -333 l-281 -281
-174 174 -175 175 134 138 c279 287 456 452 514 479 76 35 175 53 276 51 l85
-2 3 -94z m-878 -311 c21 0 9 -15 -85 -110 l-110 -110 -98 0 -99 0 54 62 c105
121 193 173 278 162 19 -2 46 -4 60 -4z m466 -635 c-10 -26 -49 -74 -110 -134
l-94 -93 -7 93 -7 93 113 110 114 111 3 -70 c2 -45 -2 -84 -12 -110z"/>
<path d="M1073 1260 c-134 -61 -94 -263 52 -263 113 0 182 124 121 218 -35 53
-112 73 -173 45z m110 -82 c53 -62 -31 -149 -96 -98 -20 16 -27 30 -27 55 0
67 79 95 123 43z"/>
<path d="M207 512 c-78 -79 -89 -100 -62 -122 18 -15 24 -11 123 84 34 33 62
68 62 76 0 18 -19 40 -35 40 -6 0 -45 -35 -88 -78z"/>
<path d="M275 330 c-111 -111 -128 -133 -119 -148 24 -38 45 -26 166 95 129
127 141 143 132 167 -15 38 -50 15 -179 -114z"/>
<path d="M457 261 c-80 -80 -90 -103 -55 -125 15 -9 30 2 98 69 44 44 80 87
80 95 0 18 -19 40 -34 40 -5 0 -45 -36 -89 -79z"/>
</g>
</svg>
