<?xml version="1.0" standalone="no"?>
<!DOCTYPE svg PUBLIC "-//W3C//DTD SVG 20010904//EN"
 "http://www.w3.org/TR/2001/REC-SVG-20010904/DTD/svg10.dtd">
<svg version="1.0" xmlns="http://www.w3.org/2000/svg"
 width="153.000000pt" height="124.000000pt" viewBox="0 0 153.000000 124.000000"
 preserveAspectRatio="xMidYMid meet">

<g transform="translate(0.000000,124.000000) scale(0.100000,-0.100000)"
fill="#000000" stroke="none">
<path d="M293 1208 c-67 -69 -293 -354 -291 -364 4 -16 749 -844 759 -844 14
0 759 831 759 846 0 8 -70 100 -155 204 l-156 190 -442 0 -443 0 -31 -32z
m608 -68 c-63 -22 -124 -40 -135 -40 -12 0 -73 18 -136 39 l-115 39 250 1 250
1 -114 -40z m-358 -30 c86 -30 157 -56 157 -59 0 -9 -301 -264 -305 -259 -4 4
-35 320 -35 359 0 13 5 19 13 17 6 -3 83 -29 170 -58z m623 43 c-2 -10 -10
-90 -17 -178 -6 -88 -15 -166 -19 -173 -5 -10 -52 26 -159 119 l-153 132 163
58 c184 64 192 66 185 42z m-829 -379 c-5 -5 -239 74 -249 84 -5 5 42 71 104
147 l113 138 18 -183 c10 -101 16 -184 14 -186z m1002 222 c56 -69 101 -128
101 -133 0 -7 -233 -93 -250 -93 -4 0 24 341 29 358 3 9 28 -19 120 -132z
m-271 -237 c2 -5 -120 -9 -307 -9 -171 0 -311 3 -311 6 0 3 15 17 32 32 18 15
88 75 156 134 l123 108 152 -131 c84 -72 154 -135 155 -140z m-813 -20 c44
-16 85 -33 91 -37 12 -7 237 -403 250 -437 4 -11 -13 2 -37 30 -24 27 -125
140 -224 250 -99 110 -187 209 -195 219 -14 18 -13 18 10 11 14 -4 61 -21 105
-36z m1009 -111 c-279 -312 -339 -377 -341 -374 -4 4 236 428 251 443 12 13
208 83 215 77 2 -2 -54 -68 -125 -146z m-164 65 c0 -17 -335 -602 -341 -596
-8 9 -339 594 -339 599 0 2 153 4 340 4 187 0 340 -3 340 -7z"/>
</g>
</svg>
