<?xml version="1.0" standalone="no"?>
<!DOCTYPE svg PUBLIC "-//W3C//DTD SVG 20010904//EN"
 "http://www.w3.org/TR/2001/REC-SVG-20010904/DTD/svg10.dtd">
<svg version="1.0" xmlns="http://www.w3.org/2000/svg"
 width="175.000000pt" height="118.000000pt" viewBox="0 0 175.000000 118.000000"
 preserveAspectRatio="xMidYMid meet">

<g transform="translate(0.000000,118.000000) scale(0.100000,-0.100000)"
fill="#000000" stroke="none">
<path d="M543 1161 c-39 -18 -95 -80 -108 -120 -2 -9 -26 -26 -52 -38 -74 -34
-112 -82 -242 -301 -88 -150 -123 -219 -132 -260 -24 -120 16 -246 107 -332
79 -75 129 -94 244 -95 84 0 102 3 152 28 67 33 139 103 168 163 12 24 35 99
52 167 34 142 29 137 147 137 99 0 95 3 130 -137 18 -69 42 -146 55 -171 77
-149 273 -229 429 -173 186 65 290 269 229 446 -9 28 -68 137 -131 242 -115
196 -167 260 -234 288 -20 8 -47 35 -72 71 -72 106 -172 132 -253 67 -53 -43
-68 -77 -63 -148 5 -99 5 -108 -15 -163 l-19 -53 -63 3 -63 3 -24 59 c-21 52
-23 64 -13 118 13 76 1 122 -44 164 -34 32 -84 54 -122 54 -12 0 -40 -9 -63
-19z m138 -80 c31 -32 35 -60 20 -151 -5 -36 -2 -55 16 -95 13 -27 23 -61 23
-75 0 -44 16 -50 136 -50 119 0 124 2 124 53 0 12 11 46 25 75 21 46 23 59 15
95 -18 80 -13 116 21 148 23 21 41 29 68 29 46 -1 69 -18 107 -83 24 -41 42
-58 85 -79 30 -16 66 -41 81 -57 32 -36 241 -386 257 -431 16 -47 14 -138 -5
-193 -21 -61 -82 -129 -146 -161 -99 -50 -236 -30 -322 45 -58 51 -79 97 -116
254 -17 72 -36 135 -43 142 -23 23 -143 35 -230 23 -45 -7 -85 -17 -89 -23 -4
-7 -17 -55 -29 -107 -37 -164 -56 -214 -99 -263 -137 -156 -387 -125 -480 60
-35 68 -40 173 -12 237 30 66 237 408 260 429 11 10 44 31 73 46 41 21 61 39
84 79 38 64 60 81 108 82 29 0 45 -7 68 -29z"/>
<path d="M277 596 c-122 -44 -185 -177 -145 -308 16 -55 79 -123 133 -143 70
-27 172 -18 227 21 125 87 144 263 41 369 -67 69 -166 93 -256 61z m164 -71
c64 -34 106 -121 93 -193 -11 -57 -86 -128 -146 -137 -60 -9 -106 6 -151 51
-70 70 -71 167 -4 240 56 61 137 75 208 39z"/>
<path d="M1297 596 c-168 -60 -213 -290 -79 -407 49 -43 96 -61 162 -61 137 0
240 103 240 240 0 168 -165 284 -323 228z m164 -72 c36 -18 75 -66 89 -109 25
-75 -17 -167 -92 -204 -56 -27 -100 -27 -155 0 -103 50 -130 181 -57 269 55
65 139 82 215 44z"/>
</g>
</svg>
